<svg xmlns="http://www.w3.org/2000/svg" viewBox="0 0 800 600" width="100%" height="100%">
  <defs>
    <linearGradient id="bgGrad_nha_khoa" x1="0%" y1="0%" x2="100%" y2="100%">
      <stop offset="0%" stop-color="#4dabf7" />
      <stop offset="100%" stop-color="#1c7ed6" />
    </linearGradient>
    <filter id="shadow_nha_khoa" x="-10%" y="-10%" width="120%" height="120%">
      <feDropShadow dx="0" dy="8" stdDeviation="12" flood-color="#000" flood-opacity="0.15" />
    </filter>
  </defs>
  <rect width="800" height="600" fill="url(#bgGrad_nha_khoa)" />
  <g transform="translate(100, 100)" filter="url(#shadow_nha_khoa)">
    <rect width="600" height="400" rx="12" ry="12" fill="#ffffff" />
    <rect width="600" height="40" rx="12" ry="12" fill="#f1f3f5" />
    <rect y="20" width="600" height="20" fill="#f1f3f5" />
    <circle cx="24" cy="20" r="6" fill="#ff5f56" />
    <circle cx="44" cy="20" r="6" fill="#ffbd2e" />
    <circle cx="64" cy="20" r="6" fill="#27c93f" />
    <rect x="90" y="10" width="420" height="20" rx="6" ry="6" fill="#ffffff" />
    <text x="100" y="24" font-family="Arial, sans-serif" font-size="11" fill="#adb5bd" font-weight="bold">taviweb.vn/demo/nha_khoa</text>
    <g transform="translate(300, 220)">
      <path d="M-25,-35 C-10,-45 10,-45 25,-35 C35,-25 35,-5 25,15 C20,25 15,35 12,45 C11,48 8,48 7,45 C5,35 0,25 -5,15 C-10,25 -15,35 -17,45 C-18,48 -21,48 -22,45 C-25,35 -30,25 -35,15 C-45,-5 -45,-25 -25,-35 Z" fill="#1c7ed6" />
    </g>
    <rect x="30" y="70" width="100" height="12" rx="4" fill="#e9ecef" />
    <rect x="420" y="70" width="50" height="12" rx="4" fill="#e9ecef" />
    <rect x="480" y="70" width="50" height="12" rx="4" fill="#e9ecef" />
    <rect x="540" y="70" width="30" height="12" rx="4" fill="#e9ecef" />
    <rect x="30" y="300" width="220" height="16" rx="4" fill="#dee2e6" />
    <rect x="30" y="325" width="180" height="10" rx="4" fill="#e9ecef" />
    <rect x="30" y="345" width="100" height="24" rx="6" fill="#1c7ed6" />
  </g>
</svg>