<svg xmlns="http://www.w3.org/2000/svg" viewBox="0 0 800 600" width="100%" height="100%">
  <defs>
    <linearGradient id="bgGrad_noi_that" x1="0%" y1="0%" x2="100%" y2="100%">
      <stop offset="0%" stop-color="#a18262" />
      <stop offset="100%" stop-color="#674d32" />
    </linearGradient>
    <filter id="shadow_noi_that" x="-10%" y="-10%" width="120%" height="120%">
      <feDropShadow dx="0" dy="8" stdDeviation="12" flood-color="#000" flood-opacity="0.15" />
    </filter>
  </defs>
  <rect width="800" height="600" fill="url(#bgGrad_noi_that)" />
  <g transform="translate(100, 100)" filter="url(#shadow_noi_that)">
    <rect width="600" height="400" rx="12" ry="12" fill="#ffffff" />
    <rect width="600" height="40" rx="12" ry="12" fill="#f1f3f5" />
    <rect y="20" width="600" height="20" fill="#f1f3f5" />
    <circle cx="24" cy="20" r="6" fill="#ff5f56" />
    <circle cx="44" cy="20" r="6" fill="#ffbd2e" />
    <circle cx="64" cy="20" r="6" fill="#27c93f" />
    <rect x="90" y="10" width="420" height="20" rx="6" ry="6" fill="#ffffff" />
    <text x="100" y="24" font-family="Arial, sans-serif" font-size="11" fill="#adb5bd" font-weight="bold">taviweb.vn/demo/noi_that</text>
    <g transform="translate(300, 220)">
      <path d="M-20,-20 H20 L15,10 H-15 Z" fill="#674d32" /><path d="M0,-20 V-40 M-10,10 L-18,35 M10,10 L18,35" stroke="#674d32" stroke-width="5" stroke-linecap="round" />
    </g>
    <rect x="30" y="70" width="100" height="12" rx="4" fill="#e9ecef" />
    <rect x="420" y="70" width="50" height="12" rx="4" fill="#e9ecef" />
    <rect x="480" y="70" width="50" height="12" rx="4" fill="#e9ecef" />
    <rect x="540" y="70" width="30" height="12" rx="4" fill="#e9ecef" />
    <rect x="30" y="300" width="220" height="16" rx="4" fill="#dee2e6" />
    <rect x="30" y="325" width="180" height="10" rx="4" fill="#e9ecef" />
    <rect x="30" y="345" width="100" height="24" rx="6" fill="#674d32" />
  </g>
</svg>